<svg width="1600" height="700" viewBox="0 0 1600 700" fill="none" xmlns="http://www.w3.org/2000/svg">
<g clip-path="url(#clip0_1_2)">
<path d="M319.034 684.893L317.947 679.162C317.875 678.782 317.655 678.446 317.335 678.228C317.016 678.01 316.623 677.929 316.243 678.001L310.512 679.088" stroke="#D8D7D7" stroke-width="1.5" stroke-linecap="round" stroke-linejoin="round"/>
<path d="M309.845 659.918L324.173 657.2C324.933 657.056 325.719 657.22 326.358 657.656C326.997 658.091 327.438 658.763 327.582 659.523L331.386 679.582C331.53 680.342 331.366 681.128 330.931 681.767C330.495 682.407 329.824 682.847 329.064 682.991L319.034 684.893L310.512 679.088L307.523 663.327C307.378 662.567 307.542 661.781 307.978 661.141C308.413 660.502 309.085 660.062 309.845 659.918Z" stroke="#D8D7D7" stroke-width="1.5" stroke-linecap="round" stroke-linejoin="round"/>
<path d="M319.726 672.887L318.096 664.29" stroke="#D8D7D7" stroke-width="1.5" stroke-linecap="round" stroke-linejoin="round"/>
<path d="M322.629 668.626L319.726 672.887L315.465 669.984" stroke="#D8D7D7" stroke-width="1.5" stroke-linecap="round" stroke-linejoin="round"/>
<g clip-path="url(#clip1_1_2)">
<path d="M1136.73 678.355L1140.32 682.956C1140.56 683.261 1140.9 683.459 1141.29 683.507C1141.67 683.554 1142.06 683.447 1142.36 683.21L1146.97 679.623" stroke="#D8D7D7" stroke-width="1.5" stroke-linecap="round" stroke-linejoin="round"/>
<path d="M1156.32 696.369L1144.82 705.334C1144.21 705.81 1143.43 706.024 1142.67 705.929C1141.9 705.833 1141.2 705.437 1140.72 704.827L1128.17 688.725C1127.7 688.115 1127.48 687.341 1127.58 686.573C1127.67 685.805 1128.07 685.107 1128.68 684.631L1136.73 678.355L1146.97 679.623L1156.83 692.275C1157.3 692.885 1157.52 693.659 1157.42 694.427C1157.33 695.195 1156.93 695.893 1156.32 696.369Z" stroke="#D8D7D7" stroke-width="1.5" stroke-linecap="round" stroke-linejoin="round"/>
<path d="M1141.6 689.35L1146.98 696.251" stroke="#D8D7D7" stroke-width="1.5" stroke-linecap="round" stroke-linejoin="round"/>
<path d="M1140.97 694.467L1141.6 689.35L1146.72 689.984" stroke="#D8D7D7" stroke-width="1.5" stroke-linecap="round" stroke-linejoin="round"/>
</g>
<g clip-path="url(#clip2_1_2)">
<path d="M1504.52 469.219L1510.15 470.73C1510.52 470.831 1510.92 470.778 1511.26 470.585C1511.59 470.392 1511.84 470.073 1511.94 469.7L1513.45 464.066" stroke="#D8D7D7" stroke-width="1.5" stroke-linecap="round" stroke-linejoin="round"/>
<path d="M1531 471.795L1527.22 485.88C1527.02 486.627 1526.53 487.264 1525.86 487.651C1525.19 488.037 1524.4 488.142 1523.65 487.942L1503.93 482.651C1503.18 482.451 1502.55 481.962 1502.16 481.292C1501.77 480.622 1501.67 479.826 1501.87 479.079L1504.52 469.219L1513.45 464.066L1528.94 468.222C1529.69 468.423 1530.33 468.912 1530.71 469.582C1531.1 470.252 1531.2 471.048 1531 471.795Z" stroke="#D8D7D7" stroke-width="1.5" stroke-linecap="round" stroke-linejoin="round"/>
<path d="M1515.03 475.059L1523.48 477.326" stroke="#D8D7D7" stroke-width="1.5" stroke-linecap="round" stroke-linejoin="round"/>
<path d="M1517.6 479.525L1515.03 475.059L1519.49 472.482" stroke="#D8D7D7" stroke-width="1.5" stroke-linecap="round" stroke-linejoin="round"/>
</g>
<g clip-path="url(#clip3_1_2)">
<path d="M824.31 58.5953L819.611 55.138C819.3 54.9087 818.91 54.8126 818.528 54.8708C818.145 54.929 817.802 55.1367 817.572 55.4482L814.115 60.1466" stroke="#D8D7D7" stroke-width="1.5" stroke-linecap="round" stroke-linejoin="round"/>
<path d="M800.574 46.561L809.218 34.8151C809.676 34.1921 810.363 33.7767 811.128 33.6603C811.893 33.544 812.672 33.7362 813.295 34.1946L829.74 46.2954C830.363 46.7539 830.778 47.4411 830.894 48.2058C831.011 48.9706 830.819 49.7502 830.36 50.3732L824.31 58.5953L814.115 60.1466L801.195 50.6388C800.572 50.1804 800.156 49.4932 800.04 48.7284C799.924 47.9637 800.116 47.184 800.574 46.561Z" stroke="#D8D7D7" stroke-width="1.5" stroke-linecap="round" stroke-linejoin="round"/>
<path d="M816.642 49.3315L809.594 44.1454" stroke="#D8D7D7" stroke-width="1.5" stroke-linecap="round" stroke-linejoin="round"/>
<path d="M815.866 44.2341L816.642 49.3315L811.544 50.1071" stroke="#D8D7D7" stroke-width="1.5" stroke-linecap="round" stroke-linejoin="round"/>
</g>
<g clip-path="url(#clip4_1_2)">
<path d="M277.365 293.792L280.632 298.624C280.848 298.945 281.183 299.166 281.563 299.24C281.943 299.313 282.336 299.233 282.657 299.016L287.489 295.749" stroke="#D8D7D7" stroke-width="1.5" stroke-linecap="round" stroke-linejoin="round"/>
<path d="M295.69 313.089L283.608 321.256C282.967 321.689 282.181 321.85 281.421 321.703C280.662 321.556 279.992 321.114 279.558 320.473L268.125 303.558C267.691 302.918 267.53 302.131 267.677 301.371C267.824 300.612 268.267 299.942 268.907 299.509L277.365 293.792L287.489 295.749L296.473 309.039C296.906 309.68 297.067 310.467 296.92 311.226C296.774 311.986 296.331 312.656 295.69 313.089Z" stroke="#D8D7D7" stroke-width="1.5" stroke-linecap="round" stroke-linejoin="round"/>
<path d="M281.482 305.091L286.382 312.34" stroke="#D8D7D7" stroke-width="1.5" stroke-linecap="round" stroke-linejoin="round"/>
<path d="M280.503 310.153L281.482 305.091L286.544 306.069" stroke="#D8D7D7" stroke-width="1.5" stroke-linecap="round" stroke-linejoin="round"/>
</g>
<g clip-path="url(#clip5_1_2)">
<path d="M1414.69 219.867L1409.03 221.294C1408.66 221.389 1408.34 221.628 1408.14 221.96C1407.94 222.293 1407.88 222.69 1407.98 223.065L1409.4 228.721" stroke="#D8D7D7" stroke-width="1.5" stroke-linecap="round" stroke-linejoin="round"/>
<path d="M1390.31 230.532L1386.74 216.392C1386.55 215.642 1386.67 214.847 1387.06 214.183C1387.46 213.519 1388.1 213.039 1388.85 212.85L1408.65 207.854C1409.4 207.665 1410.19 207.781 1410.86 208.178C1411.52 208.574 1412 209.219 1412.19 209.969L1414.69 219.867L1409.4 228.721L1393.85 232.646C1393.1 232.835 1392.31 232.719 1391.64 232.323C1390.98 231.926 1390.5 231.282 1390.31 230.532Z" stroke="#D8D7D7" stroke-width="1.5" stroke-linecap="round" stroke-linejoin="round"/>
<path d="M1402.66 219.893L1394.18 222.034" stroke="#D8D7D7" stroke-width="1.5" stroke-linecap="round" stroke-linejoin="round"/>
<path d="M1398.24 217.25L1402.66 219.893L1400.02 224.32" stroke="#D8D7D7" stroke-width="1.5" stroke-linecap="round" stroke-linejoin="round"/>
</g>
<path d="M663.034 485.893L661.947 480.162C661.875 479.782 661.655 479.446 661.335 479.228C661.016 479.01 660.623 478.929 660.243 479.001L654.512 480.088" stroke="#D8D7D7" stroke-width="1.5" stroke-linecap="round" stroke-linejoin="round"/>
<path d="M653.845 460.918L668.173 458.2C668.933 458.056 669.719 458.22 670.358 458.656C670.998 459.091 671.438 459.763 671.582 460.523L675.386 480.582C675.53 481.342 675.366 482.128 674.931 482.767C674.495 483.407 673.824 483.847 673.064 483.991L663.034 485.893L654.512 480.088L651.523 464.327C651.379 463.567 651.542 462.781 651.978 462.141C652.413 461.502 653.085 461.062 653.845 460.918Z" stroke="#D8D7D7" stroke-width="1.5" stroke-linecap="round" stroke-linejoin="round"/>
<path d="M663.726 473.887L662.096 465.29" stroke="#D8D7D7" stroke-width="1.5" stroke-linecap="round" stroke-linejoin="round"/>
<path d="M666.629 469.626L663.726 473.887L659.465 470.984" stroke="#D8D7D7" stroke-width="1.5" stroke-linecap="round" stroke-linejoin="round"/>
<path d="M191.034 182.893L189.947 177.162C189.875 176.782 189.655 176.446 189.335 176.228C189.016 176.01 188.623 175.929 188.243 176.001L182.512 177.088" stroke="#D8D7D7" stroke-width="1.5" stroke-linecap="round" stroke-linejoin="round"/>
<path d="M181.845 157.918L196.173 155.2C196.933 155.056 197.719 155.22 198.358 155.656C198.997 156.091 199.438 156.763 199.582 157.523L203.386 177.582C203.53 178.342 203.366 179.128 202.931 179.767C202.495 180.407 201.824 180.847 201.064 180.991L191.034 182.893L182.512 177.088L179.523 161.327C179.378 160.567 179.542 159.781 179.978 159.141C180.413 158.502 181.085 158.062 181.845 157.918Z" stroke="#D8D7D7" stroke-width="1.5" stroke-linecap="round" stroke-linejoin="round"/>
<path d="M191.726 170.887L190.096 162.29" stroke="#D8D7D7" stroke-width="1.5" stroke-linecap="round" stroke-linejoin="round"/>
<path d="M194.629 166.626L191.726 170.887L187.465 167.984" stroke="#D8D7D7" stroke-width="1.5" stroke-linecap="round" stroke-linejoin="round"/>
<path d="M318.034 498.893L316.947 493.162C316.875 492.782 316.655 492.446 316.335 492.228C316.016 492.01 315.623 491.929 315.243 492.001L309.512 493.088" stroke="#D8D7D7" stroke-width="1.5" stroke-linecap="round" stroke-linejoin="round"/>
<path d="M308.845 473.918L323.173 471.2C323.933 471.056 324.719 471.22 325.358 471.656C325.997 472.091 326.438 472.763 326.582 473.523L330.386 493.582C330.53 494.342 330.366 495.128 329.931 495.767C329.495 496.407 328.824 496.847 328.064 496.991L318.034 498.893L309.512 493.088L306.523 477.327C306.378 476.567 306.542 475.781 306.978 475.141C307.413 474.502 308.085 474.062 308.845 473.918Z" stroke="#D8D7D7" stroke-width="1.5" stroke-linecap="round" stroke-linejoin="round"/>
<path d="M318.726 486.887L317.096 478.29" stroke="#D8D7D7" stroke-width="1.5" stroke-linecap="round" stroke-linejoin="round"/>
<path d="M321.629 482.626L318.726 486.887L314.465 483.984" stroke="#D8D7D7" stroke-width="1.5" stroke-linecap="round" stroke-linejoin="round"/>
<g clip-path="url(#clip6_1_2)">
<path d="M936.579 216.934L941.017 220.72C941.311 220.971 941.693 221.095 942.079 221.064C942.464 221.034 942.822 220.851 943.073 220.557L946.859 216.119" stroke="#D8D7D7" stroke-width="1.5" stroke-linecap="round" stroke-linejoin="round"/>
<path d="M959.389 230.643L949.924 241.737C949.422 242.326 948.706 242.691 947.935 242.752C947.164 242.813 946.4 242.565 945.812 242.063L930.28 228.812C929.691 228.31 929.326 227.595 929.265 226.823C929.204 226.052 929.452 225.289 929.954 224.7L936.579 216.934L946.859 216.119L959.063 226.531C959.651 227.033 960.016 227.748 960.078 228.519C960.139 229.29 959.891 230.054 959.389 230.643Z" stroke="#D8D7D7" stroke-width="1.5" stroke-linecap="round" stroke-linejoin="round"/>
<path d="M943.562 226.725L950.219 232.404" stroke="#D8D7D7" stroke-width="1.5" stroke-linecap="round" stroke-linejoin="round"/>
<path d="M943.969 231.865L943.562 226.725L948.702 226.318" stroke="#D8D7D7" stroke-width="1.5" stroke-linecap="round" stroke-linejoin="round"/>
</g>
<path d="M66.0342 62.8928L64.9473 57.1617C64.8752 56.7817 64.6551 56.4459 64.3355 56.2281C64.0158 56.0104 63.6228 55.9285 63.2428 56.0006L57.5116 57.0875" stroke="#D8D7D7" stroke-width="1.5" stroke-linecap="round" stroke-linejoin="round"/>
<path d="M56.8447 37.9177L71.1727 35.2005C71.9327 35.0563 72.7188 35.22 73.3581 35.6555C73.9975 36.091 74.4376 36.7626 74.5817 37.5226L78.3859 57.5817C78.53 58.3417 78.3663 59.1279 77.9309 59.7672C77.4954 60.4065 76.8237 60.8466 76.0637 60.9908L66.0342 62.8928L57.5116 57.0875L54.5226 41.3268C54.3785 40.5668 54.5422 39.7806 54.9776 39.1413C55.4131 38.502 56.0847 38.0618 56.8447 37.9177Z" stroke="#D8D7D7" stroke-width="1.5" stroke-linecap="round" stroke-linejoin="round"/>
<path d="M66.726 50.887L65.0956 42.2903" stroke="#D8D7D7" stroke-width="1.5" stroke-linecap="round" stroke-linejoin="round"/>
<path d="M69.6286 46.6257L66.726 50.887L62.4647 47.9844" stroke="#D8D7D7" stroke-width="1.5" stroke-linecap="round" stroke-linejoin="round"/>
<g clip-path="url(#clip7_1_2)">
<path d="M136.903 432.891L133.692 437.761C133.479 438.084 133.403 438.478 133.481 438.857C133.559 439.236 133.784 439.568 134.107 439.781L138.977 442.992" stroke="#D8D7D7" stroke-width="1.5" stroke-linecap="round" stroke-linejoin="round"/>
<path d="M126.106 457.214L113.931 449.187C113.285 448.761 112.835 448.096 112.679 447.338C112.524 446.581 112.675 445.792 113.101 445.146L124.34 428.101C124.766 427.456 125.431 427.005 126.188 426.85C126.946 426.694 127.735 426.846 128.38 427.272L136.903 432.891L138.977 442.992L130.146 456.385C129.721 457.031 129.056 457.481 128.298 457.637C127.54 457.792 126.752 457.64 126.106 457.214Z" stroke="#D8D7D7" stroke-width="1.5" stroke-linecap="round" stroke-linejoin="round"/>
<path d="M119.577 445.922L126.882 450.739" stroke="#D8D7D7" stroke-width="1.5" stroke-linecap="round" stroke-linejoin="round"/>
<path d="M122.788 441.052L130.093 445.869" stroke="#D8D7D7" stroke-width="1.5" stroke-linecap="round" stroke-linejoin="round"/>
</g>
<g clip-path="url(#clip8_1_2)">
<path d="M476.284 555.931L482.091 556.482C482.476 556.519 482.86 556.401 483.158 556.154C483.456 555.908 483.644 555.553 483.681 555.168L484.232 549.361" stroke="#D8D7D7" stroke-width="1.5" stroke-linecap="round" stroke-linejoin="round"/>
<path d="M502.83 554.055L501.452 568.573C501.379 569.344 501.003 570.053 500.407 570.546C499.811 571.039 499.043 571.275 498.273 571.202L477.948 569.273C477.178 569.2 476.468 568.824 475.975 568.228C475.482 567.632 475.247 566.864 475.32 566.094L476.284 555.931L484.232 549.361L500.202 550.876C500.972 550.949 501.681 551.325 502.174 551.921C502.667 552.518 502.903 553.285 502.83 554.055Z" stroke="#D8D7D7" stroke-width="1.5" stroke-linecap="round" stroke-linejoin="round"/>
<path d="M495.921 565.119L496.747 556.408" stroke="#D8D7D7" stroke-width="1.5" stroke-linecap="round" stroke-linejoin="round"/>
<path d="M490.113 564.568L490.94 555.857" stroke="#D8D7D7" stroke-width="1.5" stroke-linecap="round" stroke-linejoin="round"/>
</g>
<path d="M614.538 113.629L613.555 107.879C613.489 107.498 613.275 107.158 612.96 106.935C612.644 106.711 612.253 106.622 611.871 106.688L606.121 107.671" stroke="#D8D7D7" stroke-width="1.5" stroke-linecap="round" stroke-linejoin="round"/>
<path d="M605.8 88.4924L620.174 86.0335C620.937 85.9031 621.72 86.0809 622.351 86.5279C622.983 86.9748 623.411 87.6542 623.541 88.4167L626.983 108.541C627.114 109.304 626.936 110.087 626.489 110.718C626.042 111.349 625.363 111.777 624.6 111.908L614.538 113.629L606.121 107.671L603.417 91.8591C603.286 91.0966 603.464 90.3135 603.911 89.6822C604.358 89.0508 605.037 88.6228 605.8 88.4924Z" stroke="#D8D7D7" stroke-width="1.5" stroke-linecap="round" stroke-linejoin="round"/>
<path d="M618.283 92.2751L609.658 93.7504" stroke="#D8D7D7" stroke-width="1.5" stroke-linecap="round" stroke-linejoin="round"/>
<path d="M619.267 98.025L610.642 99.5003" stroke="#D8D7D7" stroke-width="1.5" stroke-linecap="round" stroke-linejoin="round"/>
<g clip-path="url(#clip9_1_2)">
<path d="M940.626 583.318L942.72 588.763C942.859 589.124 943.136 589.415 943.489 589.572C943.843 589.729 944.244 589.739 944.605 589.601L950.05 587.507" stroke="#D8D7D7" stroke-width="1.5" stroke-linecap="round" stroke-linejoin="round"/>
<path d="M954.133 606.248L940.522 611.483C939.8 611.761 938.997 611.741 938.29 611.426C937.583 611.112 937.03 610.53 936.752 609.808L929.423 590.752C929.145 590.03 929.166 589.228 929.48 588.521C929.794 587.814 930.376 587.261 931.098 586.983L940.626 583.319L950.05 587.507L955.808 602.479C956.086 603.201 956.065 604.004 955.751 604.711C955.437 605.418 954.855 605.971 954.133 606.248Z" stroke="#D8D7D7" stroke-width="1.5" stroke-linecap="round" stroke-linejoin="round"/>
<path d="M941.15 604.992L949.317 601.851" stroke="#D8D7D7" stroke-width="1.5" stroke-linecap="round" stroke-linejoin="round"/>
<path d="M939.056 599.547L947.223 596.406" stroke="#D8D7D7" stroke-width="1.5" stroke-linecap="round" stroke-linejoin="round"/>
</g>
<g clip-path="url(#clip10_1_2)">
<path d="M444.056 163.057L441.12 168.097C440.926 168.431 440.872 168.829 440.97 169.203C441.069 169.577 441.312 169.897 441.646 170.091L446.687 173.027" stroke="#D8D7D7" stroke-width="1.5" stroke-linecap="round" stroke-linejoin="round"/>
<path d="M434.624 187.941L422.023 180.601C421.355 180.212 420.868 179.573 420.671 178.825C420.474 178.077 420.581 177.281 420.971 176.613L431.247 158.971C431.636 158.302 432.275 157.816 433.023 157.619C433.771 157.421 434.567 157.529 435.235 157.919L444.056 163.057L446.687 173.027L438.613 186.889C438.223 187.557 437.584 188.044 436.837 188.241C436.089 188.438 435.293 188.331 434.624 187.941Z" stroke="#D8D7D7" stroke-width="1.5" stroke-linecap="round" stroke-linejoin="round"/>
<path d="M427.479 177.029L435.04 181.433" stroke="#D8D7D7" stroke-width="1.5" stroke-linecap="round" stroke-linejoin="round"/>
<path d="M430.415 171.988L437.976 176.392" stroke="#D8D7D7" stroke-width="1.5" stroke-linecap="round" stroke-linejoin="round"/>
</g>
<g clip-path="url(#clip11_1_2)">
<path d="M1485.75 644.763L1487.6 650.297C1487.72 650.663 1487.98 650.967 1488.33 651.14C1488.67 651.313 1489.07 651.341 1489.44 651.219L1494.98 649.374" stroke="#D8D7D7" stroke-width="1.5" stroke-linecap="round" stroke-linejoin="round"/>
<path d="M1498.2 668.282L1484.37 672.894C1483.64 673.138 1482.83 673.081 1482.14 672.736C1481.45 672.39 1480.93 671.783 1480.68 671.049L1474.22 651.68C1473.98 650.947 1474.04 650.146 1474.38 649.454C1474.73 648.762 1475.33 648.236 1476.07 647.991L1485.75 644.763L1494.98 649.374L1500.05 664.592C1500.29 665.326 1500.24 666.127 1499.89 666.819C1499.55 667.511 1498.94 668.037 1498.2 668.282Z" stroke="#D8D7D7" stroke-width="1.5" stroke-linecap="round" stroke-linejoin="round"/>
<path d="M1485.29 666.437L1493.59 663.67" stroke="#D8D7D7" stroke-width="1.5" stroke-linecap="round" stroke-linejoin="round"/>
<path d="M1483.45 660.903L1491.75 658.136" stroke="#D8D7D7" stroke-width="1.5" stroke-linecap="round" stroke-linejoin="round"/>
</g>
<g clip-path="url(#clip12_1_2)">
<path d="M1345.98 394.135L1351.36 396.408C1351.71 396.559 1352.11 396.562 1352.47 396.417C1352.83 396.272 1353.12 395.99 1353.27 395.634L1355.54 390.261" stroke="#D8D7D7" stroke-width="1.5" stroke-linecap="round" stroke-linejoin="round"/>
<path d="M1371.86 400.335L1366.18 413.766C1365.88 414.478 1365.31 415.042 1364.59 415.332C1363.87 415.623 1363.07 415.617 1362.36 415.315L1343.56 407.359C1342.84 407.058 1342.28 406.486 1341.99 405.769C1341.7 405.052 1341.71 404.249 1342.01 403.537L1345.98 394.135L1355.54 390.261L1370.32 396.512C1371.03 396.814 1371.59 397.386 1371.88 398.103C1372.17 398.82 1372.17 399.623 1371.86 400.335Z" stroke="#D8D7D7" stroke-width="1.5" stroke-linecap="round" stroke-linejoin="round"/>
<path d="M1361.95 408.806L1365.36 400.748" stroke="#D8D7D7" stroke-width="1.5" stroke-linecap="round" stroke-linejoin="round"/>
<path d="M1356.57 406.533L1359.98 398.475" stroke="#D8D7D7" stroke-width="1.5" stroke-linecap="round" stroke-linejoin="round"/>
</g>
<g clip-path="url(#clip13_1_2)">
<path d="M1092.98 481.135L1098.36 483.408C1098.71 483.559 1099.11 483.562 1099.47 483.417C1099.83 483.272 1100.12 482.99 1100.27 482.634L1102.54 477.261" stroke="#D8D7D7" stroke-width="1.5" stroke-linecap="round" stroke-linejoin="round"/>
<path d="M1118.86 487.335L1113.18 500.766C1112.88 501.478 1112.31 502.042 1111.59 502.332C1110.87 502.623 1110.07 502.617 1109.36 502.315L1090.56 494.359C1089.84 494.058 1089.28 493.486 1088.99 492.769C1088.7 492.052 1088.71 491.249 1089.01 490.537L1092.98 481.135L1102.54 477.261L1117.32 483.512C1118.03 483.814 1118.59 484.386 1118.88 485.103C1119.17 485.82 1119.17 486.623 1118.86 487.335Z" stroke="#D8D7D7" stroke-width="1.5" stroke-linecap="round" stroke-linejoin="round"/>
<path d="M1108.95 495.806L1112.36 487.748" stroke="#D8D7D7" stroke-width="1.5" stroke-linecap="round" stroke-linejoin="round"/>
<path d="M1103.57 493.533L1106.98 485.475" stroke="#D8D7D7" stroke-width="1.5" stroke-linecap="round" stroke-linejoin="round"/>
</g>
<g clip-path="url(#clip14_1_2)">
<path d="M875.69 415.947L871.775 420.271C871.515 420.558 871.38 420.936 871.399 421.322C871.418 421.709 871.59 422.072 871.877 422.331L876.201 426.247" stroke="#D8D7D7" stroke-width="1.5" stroke-linecap="round" stroke-linejoin="round"/>
<path d="M861.313 438.342L850.503 428.553C849.93 428.034 849.586 427.308 849.548 426.535C849.51 425.763 849.78 425.006 850.299 424.433L864.004 409.299C864.523 408.726 865.249 408.382 866.021 408.344C866.794 408.306 867.55 408.576 868.124 409.095L875.69 415.947L876.201 426.247L865.433 438.137C864.914 438.711 864.188 439.054 863.415 439.093C862.643 439.131 861.887 438.861 861.313 438.342Z" stroke="#D8D7D7" stroke-width="1.5" stroke-linecap="round" stroke-linejoin="round"/>
<path d="M856.581 426.187L863.067 432.06" stroke="#D8D7D7" stroke-width="1.5" stroke-linecap="round" stroke-linejoin="round"/>
<path d="M860.497 421.863L866.982 427.736" stroke="#D8D7D7" stroke-width="1.5" stroke-linecap="round" stroke-linejoin="round"/>
</g>
<g clip-path="url(#clip15_1_2)">
<path d="M1282.98 -1.86461L1288.36 0.408486C1288.71 0.559202 1289.11 0.562244 1289.47 0.416945C1289.83 0.271645 1290.12 -0.0100947 1290.27 -0.366295L1292.54 -5.73852" stroke="#D8D7D7" stroke-width="1.5" stroke-linecap="round" stroke-linejoin="round"/>
<path d="M1308.86 4.33516L1303.18 17.7657C1302.88 18.4781 1302.31 19.0416 1301.59 19.3322C1300.87 19.6228 1300.07 19.6167 1299.36 19.3153L1280.56 11.3594C1279.84 11.058 1279.28 10.4859 1278.99 9.76904C1278.7 9.05215 1278.71 8.24918 1279.01 7.53678L1282.98 -1.86461L1292.54 -5.73852L1307.32 0.512502C1308.03 0.813934 1308.59 1.38602 1308.88 2.10291C1309.17 2.8198 1309.17 3.62276 1308.86 4.33516Z" stroke="#D8D7D7" stroke-width="1.5" stroke-linecap="round" stroke-linejoin="round"/>
<path d="M1298.95 12.8065L1302.36 4.74818" stroke="#D8D7D7" stroke-width="1.5" stroke-linecap="round" stroke-linejoin="round"/>
<path d="M1293.57 10.5334L1296.98 2.47508" stroke="#D8D7D7" stroke-width="1.5" stroke-linecap="round" stroke-linejoin="round"/>
</g>
<path d="M1221.03 173.889L1219.94 168.157C1219.87 167.777 1219.65 167.441 1219.33 167.223C1219.01 167.005 1218.62 166.923 1218.24 166.995L1212.51 168.081" stroke="#D8D7D7" stroke-width="1.5" stroke-linecap="round" stroke-linejoin="round"/>
<path d="M1211.84 148.911L1226.17 146.198C1226.93 146.054 1227.72 146.218 1228.36 146.653C1229 147.089 1229.44 147.761 1229.58 148.521L1233.38 168.581C1233.52 169.341 1233.36 170.127 1232.92 170.766C1232.49 171.406 1231.82 171.846 1231.06 171.989L1221.03 173.889L1212.51 168.081L1209.52 152.319C1209.38 151.559 1209.54 150.773 1209.98 150.134C1210.41 149.495 1211.08 149.055 1211.84 148.911Z" stroke="#D8D7D7" stroke-width="1.5" stroke-linecap="round" stroke-linejoin="round"/>
<path d="M1224.39 152.472L1215.79 154.1" stroke="#D8D7D7" stroke-width="1.5" stroke-linecap="round" stroke-linejoin="round"/>
<path d="M1225.48 158.203L1216.88 159.831" stroke="#D8D7D7" stroke-width="1.5" stroke-linecap="round" stroke-linejoin="round"/>
<g clip-path="url(#clip16_1_2)">
<path d="M123.053 620.616C124.424 618.765 126.258 617.307 128.372 616.389C130.485 615.471 132.802 615.125 135.091 615.386C136.462 613.535 138.297 612.077 140.41 611.159C142.523 610.241 144.84 609.895 147.129 610.157" stroke="#D8D7D7" stroke-width="1.5" stroke-linecap="round" stroke-linejoin="round"/>
<path d="M115.499 603.228C116.87 601.376 118.704 599.918 120.817 599C122.931 598.082 125.248 597.737 127.537 597.998C128.908 596.147 130.742 594.689 132.855 593.77C134.969 592.852 137.286 592.507 139.575 592.768" stroke="#D8D7D7" stroke-width="1.5" stroke-linecap="round" stroke-linejoin="round"/>
<path d="M115.499 603.228L123.053 620.617" stroke="#D8D7D7" stroke-width="1.5" stroke-linecap="round" stroke-linejoin="round"/>
<path d="M127.537 597.999L135.091 615.387" stroke="#D8D7D7" stroke-width="1.5" stroke-linecap="round" stroke-linejoin="round"/>
<path d="M139.575 592.769L147.129 610.157" stroke="#D8D7D7" stroke-width="1.5" stroke-linecap="round" stroke-linejoin="round"/>
</g>
<g clip-path="url(#clip17_1_2)">
<path d="M1055.21 71.2577C1052.95 71.6637 1050.61 71.4656 1048.44 70.6833C1046.28 69.901 1044.35 68.5621 1042.87 66.8011C1040.6 67.2071 1038.27 67.009 1036.1 66.2267C1033.93 65.4444 1032.01 64.1054 1030.52 62.3444" stroke="#D8D7D7" stroke-width="1.5" stroke-linecap="round" stroke-linejoin="round"/>
<path d="M1048.78 89.0897C1046.51 89.4957 1044.17 89.2976 1042.01 88.5153C1039.84 87.733 1037.92 86.394 1036.43 84.633C1034.16 85.039 1031.83 84.8409 1029.66 84.0586C1027.49 83.2763 1025.57 81.9374 1024.09 80.1764" stroke="#D8D7D7" stroke-width="1.5" stroke-linecap="round" stroke-linejoin="round"/>
<path d="M1048.78 89.0893L1055.21 71.2573" stroke="#D8D7D7" stroke-width="1.5" stroke-linecap="round" stroke-linejoin="round"/>
<path d="M1036.43 84.6326L1042.87 66.8007" stroke="#D8D7D7" stroke-width="1.5" stroke-linecap="round" stroke-linejoin="round"/>
<path d="M1024.09 80.176L1030.52 62.344" stroke="#D8D7D7" stroke-width="1.5" stroke-linecap="round" stroke-linejoin="round"/>
</g>
<g clip-path="url(#clip18_1_2)">
<path d="M44.8842 285.27C45.4535 283.037 46.6004 280.994 48.2097 279.345C49.819 277.696 51.8339 276.5 54.0519 275.877C54.6212 273.645 55.7681 271.601 57.3774 269.953C58.9867 268.304 61.0016 267.108 63.2196 266.485" stroke="#D8D7D7" stroke-width="1.5" stroke-linecap="round" stroke-linejoin="round"/>
<path d="M31.3173 272.027C31.8866 269.795 33.0335 267.752 34.6428 266.103C36.252 264.454 38.2669 263.258 40.485 262.635C41.0543 260.402 42.2012 258.359 43.8105 256.71C45.4197 255.062 47.4346 253.866 49.6527 253.242" stroke="#D8D7D7" stroke-width="1.5" stroke-linecap="round" stroke-linejoin="round"/>
<path d="M31.3176 272.028L44.8845 285.27" stroke="#D8D7D7" stroke-width="1.5" stroke-linecap="round" stroke-linejoin="round"/>
<path d="M40.4853 262.635L54.0522 275.877" stroke="#D8D7D7" stroke-width="1.5" stroke-linecap="round" stroke-linejoin="round"/>
<path d="M49.653 253.243L63.2199 266.485" stroke="#D8D7D7" stroke-width="1.5" stroke-linecap="round" stroke-linejoin="round"/>
</g>
<g clip-path="url(#clip19_1_2)">
<path d="M1160.36 327.642C1162.55 328.372 1164.5 329.665 1166.03 331.39C1167.55 333.115 1168.6 335.212 1169.06 337.469C1171.25 338.2 1173.2 339.492 1174.73 341.218C1176.25 342.943 1177.3 345.039 1177.76 347.297" stroke="#D8D7D7" stroke-width="1.5" stroke-linecap="round" stroke-linejoin="round"/>
<path d="M1174.55 315.076C1176.74 315.806 1178.69 317.099 1180.22 318.824C1181.75 320.549 1182.79 322.645 1183.25 324.903C1185.44 325.633 1187.39 326.926 1188.92 328.651C1190.45 330.376 1191.49 332.473 1191.95 334.73" stroke="#D8D7D7" stroke-width="1.5" stroke-linecap="round" stroke-linejoin="round"/>
<path d="M1174.55 315.076L1160.36 327.642" stroke="#D8D7D7" stroke-width="1.5" stroke-linecap="round" stroke-linejoin="round"/>
<path d="M1183.25 324.903L1169.06 337.47" stroke="#D8D7D7" stroke-width="1.5" stroke-linecap="round" stroke-linejoin="round"/>
<path d="M1191.95 334.73L1177.76 347.297" stroke="#D8D7D7" stroke-width="1.5" stroke-linecap="round" stroke-linejoin="round"/>
</g>
<g clip-path="url(#clip20_1_2)">
<path d="M1474.64 37.4642C1475.1 39.722 1474.96 42.0608 1474.22 44.2454C1473.49 46.4301 1472.2 48.3837 1470.47 49.9099C1470.93 52.1677 1470.79 54.5064 1470.06 56.6911C1469.32 58.8758 1468.03 60.8294 1466.3 62.3555" stroke="#D8D7D7" stroke-width="1.5" stroke-linecap="round" stroke-linejoin="round"/>
<path d="M1492.62 43.4845C1493.08 45.7423 1492.93 48.081 1492.2 50.2657C1491.47 52.4504 1490.18 54.404 1488.45 55.9301C1488.91 58.1879 1488.76 60.5267 1488.03 62.7114C1487.3 64.896 1486.01 66.8496 1484.28 68.3758" stroke="#D8D7D7" stroke-width="1.5" stroke-linecap="round" stroke-linejoin="round"/>
<path d="M1492.62 43.4844L1474.64 37.4641" stroke="#D8D7D7" stroke-width="1.5" stroke-linecap="round" stroke-linejoin="round"/>
<path d="M1488.45 55.93L1470.47 49.9097" stroke="#D8D7D7" stroke-width="1.5" stroke-linecap="round" stroke-linejoin="round"/>
<path d="M1484.28 68.3757L1466.3 62.3554" stroke="#D8D7D7" stroke-width="1.5" stroke-linecap="round" stroke-linejoin="round"/>
</g>
<g clip-path="url(#clip21_1_2)">
<path d="M727.479 629.08C725.789 630.646 723.716 631.738 721.47 632.249C719.223 632.759 716.881 632.669 714.681 631.988C712.99 633.553 710.917 634.646 708.671 635.156C706.424 635.667 704.083 635.577 701.882 634.895" stroke="#D8D7D7" stroke-width="1.5" stroke-linecap="round" stroke-linejoin="round"/>
<path d="M731.679 647.567C729.989 649.133 727.916 650.226 725.669 650.736C723.423 651.246 721.081 651.156 718.88 650.475C717.19 652.04 715.117 653.133 712.871 653.644C710.624 654.154 708.282 654.064 706.082 653.383" stroke="#D8D7D7" stroke-width="1.5" stroke-linecap="round" stroke-linejoin="round"/>
<path d="M731.679 647.567L727.479 629.08" stroke="#D8D7D7" stroke-width="1.5" stroke-linecap="round" stroke-linejoin="round"/>
<path d="M718.88 650.475L714.68 631.987" stroke="#D8D7D7" stroke-width="1.5" stroke-linecap="round" stroke-linejoin="round"/>
<path d="M706.081 653.382L701.882 634.895" stroke="#D8D7D7" stroke-width="1.5" stroke-linecap="round" stroke-linejoin="round"/>
</g>
<g clip-path="url(#clip22_1_2)">
<path d="M709.015 293.053C709.251 290.761 710.086 288.572 711.436 286.705C712.786 284.838 714.604 283.36 716.707 282.418C716.943 280.126 717.778 277.937 719.128 276.07C720.478 274.203 722.296 272.725 724.399 271.783" stroke="#D8D7D7" stroke-width="1.5" stroke-linecap="round" stroke-linejoin="round"/>
<path d="M693.654 281.942C693.889 279.651 694.725 277.461 696.075 275.594C697.425 273.728 699.243 272.249 701.346 271.308C701.581 269.016 702.416 266.826 703.767 264.96C705.117 263.093 706.935 261.614 709.037 260.673" stroke="#D8D7D7" stroke-width="1.5" stroke-linecap="round" stroke-linejoin="round"/>
<path d="M693.654 281.943L709.015 293.053" stroke="#D8D7D7" stroke-width="1.5" stroke-linecap="round" stroke-linejoin="round"/>
<path d="M701.346 271.308L716.707 282.418" stroke="#D8D7D7" stroke-width="1.5" stroke-linecap="round" stroke-linejoin="round"/>
<path d="M709.038 260.673L724.399 271.784" stroke="#D8D7D7" stroke-width="1.5" stroke-linecap="round" stroke-linejoin="round"/>
</g>
<g clip-path="url(#clip23_1_2)">
<path d="M500.181 331.502C499.026 333.496 497.367 335.151 495.37 336.3C493.373 337.449 491.109 338.052 488.805 338.049C487.65 340.042 485.991 341.697 483.994 342.846C481.997 343.995 479.733 344.598 477.429 344.595" stroke="#D8D7D7" stroke-width="1.5" stroke-linecap="round" stroke-linejoin="round"/>
<path d="M509.637 347.935C508.482 349.928 506.822 351.583 504.825 352.732C502.829 353.881 500.564 354.484 498.26 354.481C497.106 356.474 495.446 358.129 493.449 359.278C491.453 360.427 489.188 361.03 486.884 361.027" stroke="#D8D7D7" stroke-width="1.5" stroke-linecap="round" stroke-linejoin="round"/>
<path d="M509.636 347.934L500.181 331.502" stroke="#D8D7D7" stroke-width="1.5" stroke-linecap="round" stroke-linejoin="round"/>
<path d="M498.26 354.48L488.805 338.048" stroke="#D8D7D7" stroke-width="1.5" stroke-linecap="round" stroke-linejoin="round"/>
<path d="M486.884 361.026L477.429 344.594" stroke="#D8D7D7" stroke-width="1.5" stroke-linecap="round" stroke-linejoin="round"/>
</g>
<g clip-path="url(#clip24_1_2)">
<path d="M1591.01 269.565C1588.94 268.536 1587.19 266.983 1585.92 265.062C1584.65 263.14 1583.9 260.918 1583.76 258.619C1581.7 257.59 1579.95 256.037 1578.68 254.116C1577.41 252.194 1576.66 249.972 1576.52 247.672" stroke="#D8D7D7" stroke-width="1.5" stroke-linecap="round" stroke-linejoin="round"/>
<path d="M1575.2 280.025C1573.13 278.997 1571.38 277.444 1570.11 275.522C1568.84 273.601 1568.09 271.379 1567.95 269.079C1565.89 268.051 1564.14 266.498 1562.87 264.576C1561.59 262.655 1560.85 260.433 1560.71 258.133" stroke="#D8D7D7" stroke-width="1.5" stroke-linecap="round" stroke-linejoin="round"/>
<path d="M1575.2 280.025L1591.01 269.565" stroke="#D8D7D7" stroke-width="1.5" stroke-linecap="round" stroke-linejoin="round"/>
<path d="M1567.95 269.079L1583.76 258.618" stroke="#D8D7D7" stroke-width="1.5" stroke-linecap="round" stroke-linejoin="round"/>
<path d="M1560.71 258.133L1576.52 247.672" stroke="#D8D7D7" stroke-width="1.5" stroke-linecap="round" stroke-linejoin="round"/>
</g>
<g clip-path="url(#clip25_1_2)">
<path d="M320.484 28.9689C322.768 28.6595 325.092 28.9565 327.224 29.8301C329.356 30.7037 331.22 32.1231 332.629 33.9456C334.912 33.6362 337.237 33.9333 339.369 34.8069C341.5 35.6805 343.365 37.0999 344.774 38.9224" stroke="#D8D7D7" stroke-width="1.5" stroke-linecap="round" stroke-linejoin="round"/>
<path d="M327.673 11.4263C329.956 11.1169 332.28 11.414 334.412 12.2876C336.544 13.1612 338.409 14.5805 339.818 16.403C342.101 16.0937 344.425 16.3907 346.557 17.2643C348.689 18.1379 350.553 19.5573 351.963 21.3798" stroke="#D8D7D7" stroke-width="1.5" stroke-linecap="round" stroke-linejoin="round"/>
<path d="M327.673 11.4267L320.484 28.9693" stroke="#D8D7D7" stroke-width="1.5" stroke-linecap="round" stroke-linejoin="round"/>
<path d="M339.818 16.4034L332.629 33.946" stroke="#D8D7D7" stroke-width="1.5" stroke-linecap="round" stroke-linejoin="round"/>
<path d="M351.963 21.3802L344.774 38.9227" stroke="#D8D7D7" stroke-width="1.5" stroke-linecap="round" stroke-linejoin="round"/>
</g>
<g clip-path="url(#clip26_1_2)">
<path d="M1303.38 572.708C1305.37 571.556 1307.63 570.95 1309.94 570.95C1312.24 570.95 1314.5 571.556 1316.5 572.708C1318.5 571.556 1320.76 570.95 1323.06 570.95C1325.37 570.95 1327.63 571.556 1329.63 572.708" stroke="#D8D7D7" stroke-width="1.5" stroke-linecap="round" stroke-linejoin="round"/>
<path d="M1303.38 553.75C1305.37 552.598 1307.63 551.991 1309.94 551.991C1312.24 551.991 1314.5 552.598 1316.5 553.75C1318.5 552.598 1320.76 551.991 1323.06 551.991C1325.37 551.991 1327.63 552.598 1329.63 553.75" stroke="#D8D7D7" stroke-width="1.5" stroke-linecap="round" stroke-linejoin="round"/>
<path d="M1303.38 553.75V572.708" stroke="#D8D7D7" stroke-width="1.5" stroke-linecap="round" stroke-linejoin="round"/>
<path d="M1316.5 553.75V572.708" stroke="#D8D7D7" stroke-width="1.5" stroke-linecap="round" stroke-linejoin="round"/>
<path d="M1329.62 553.75V572.708" stroke="#D8D7D7" stroke-width="1.5" stroke-linecap="round" stroke-linejoin="round"/>
</g>
</g>
<defs>
<clipPath id="clip0_1_2">
<rect width="1600" height="700" fill="white"/>
</clipPath>
<clipPath id="clip1_1_2">
<rect width="35" height="35" fill="white" transform="translate(1117.94 687.457) rotate(-37.9365)"/>
</clipPath>
<clipPath id="clip2_1_2">
<rect width="35" height="35" fill="white" transform="translate(1495 487.805) rotate(-74.9828)"/>
</clipPath>
<clipPath id="clip3_1_2">
<rect width="35" height="35" fill="white" transform="translate(839.934 44.7442) rotate(126.348)"/>
</clipPath>
<clipPath id="clip4_1_2">
<rect width="35" height="35" fill="white" transform="translate(258 301.601) rotate(-34.0578)"/>
</clipPath>
<clipPath id="clip5_1_2">
<rect width="35" height="35" fill="white" transform="translate(1413.94 199) rotate(75.836)"/>
</clipPath>
<clipPath id="clip6_1_2">
<rect width="35" height="35" fill="white" transform="translate(920 229.627) rotate(-49.5313)"/>
</clipPath>
<clipPath id="clip7_1_2">
<rect width="35" height="35" fill="white" transform="translate(122.266 418) rotate(33.3984)"/>
</clipPath>
<clipPath id="clip8_1_2">
<rect width="35" height="35" fill="white" transform="translate(470 575.844) rotate(-84.5801)"/>
</clipPath>
<clipPath id="clip9_1_2">
<rect width="35" height="35" fill="white" transform="translate(920 586.564) rotate(-21.0374)"/>
</clipPath>
<clipPath id="clip10_1_2">
<rect width="35" height="35" fill="white" transform="translate(428.616 149) rotate(30.2204)"/>
</clipPath>
<clipPath id="clip11_1_2">
<rect width="35" height="35" fill="white" transform="translate(1465 647.069) rotate(-18.4367)"/>
</clipPath>
<clipPath id="clip12_1_2">
<rect width="35" height="35" fill="white" transform="translate(1334 411.233) rotate(-67.0658)"/>
</clipPath>
<clipPath id="clip13_1_2">
<rect width="35" height="35" fill="white" transform="translate(1081 498.233) rotate(-67.0658)"/>
</clipPath>
<clipPath id="clip14_1_2">
<rect width="35" height="35" fill="white" transform="translate(863.493 399) rotate(42.1627)"/>
</clipPath>
<clipPath id="clip15_1_2">
<rect width="35" height="35" fill="white" transform="translate(1271 15.2333) rotate(-67.0658)"/>
</clipPath>
<clipPath id="clip16_1_2">
<rect width="35" height="35" fill="white" transform="translate(108 596.946) rotate(-23.482)"/>
</clipPath>
<clipPath id="clip17_1_2">
<rect width="35" height="35" fill="white" transform="translate(1049.92 98.805) rotate(-160.15)"/>
</clipPath>
<clipPath id="clip18_1_2">
<rect width="35" height="35" fill="white" transform="translate(22 269.047) rotate(-45.6939)"/>
</clipPath>
<clipPath id="clip19_1_2">
<rect width="35" height="35" fill="white" transform="translate(1178.21 306) rotate(48.4822)"/>
</clipPath>
<clipPath id="clip20_1_2">
<rect width="35" height="35" fill="white" transform="translate(1502.3 42.1144) rotate(108.515)"/>
</clipPath>
<clipPath id="clip21_1_2">
<rect width="35" height="35" fill="white" transform="translate(737.884 655.13) rotate(167.201)"/>
</clipPath>
<clipPath id="clip22_1_2">
<rect width="35" height="35" fill="white" transform="translate(684 280.36) rotate(-54.1225)"/>
</clipPath>
<clipPath id="clip23_1_2">
<rect width="35" height="35" fill="white" transform="translate(517.792 353.336) rotate(150.083)"/>
</clipPath>
<clipPath id="clip24_1_2">
<rect width="35" height="35" fill="white" transform="translate(1570.31 288.502) rotate(-123.488)"/>
</clipPath>
<clipPath id="clip25_1_2">
<rect width="35" height="35" fill="white" transform="translate(326.943 1.67119) rotate(22.2829)"/>
</clipPath>
<clipPath id="clip26_1_2">
<rect width="35" height="35" fill="white" transform="translate(1299 545)"/>
</clipPath>
</defs>
</svg>
